<mxfile host="app.diagrams.net" agent="Mozilla/5.0 (Windows NT 10.0; Win64; x64) AppleWebKit/537.36 (KHTML, like Gecko) Chrome/141.0.0.0 Safari/537.36 Edg/141.0.0.0" version="28.2.5">
  <diagram name="Trang-1" id="nJWP9URTNDLI6HcV7DgR">
    <mxGraphModel dx="1273" dy="570" grid="1" gridSize="10" guides="1" tooltips="1" connect="1" arrows="1" fold="1" page="1" pageScale="1" pageWidth="3300" pageHeight="4681" math="0" shadow="0">
      <root>
        <mxCell id="0" />
        <mxCell id="1" parent="0" />
        <mxCell id="Qn_R-YLeY9We30xwjEHK-3" value="" style="edgeStyle=orthogonalEdgeStyle;rounded=0;orthogonalLoop=1;jettySize=auto;html=1;" edge="1" parent="1" source="Qn_R-YLeY9We30xwjEHK-1" target="Qn_R-YLeY9We30xwjEHK-2">
          <mxGeometry relative="1" as="geometry" />
        </mxCell>
        <mxCell id="Qn_R-YLeY9We30xwjEHK-1" value="Start" style="strokeWidth=2;html=1;shape=mxgraph.flowchart.start_1;whiteSpace=wrap;" vertex="1" parent="1">
          <mxGeometry x="480" y="140" width="100" height="60" as="geometry" />
        </mxCell>
        <mxCell id="Qn_R-YLeY9We30xwjEHK-5" value="" style="edgeStyle=orthogonalEdgeStyle;rounded=0;orthogonalLoop=1;jettySize=auto;html=1;" edge="1" parent="1" source="Qn_R-YLeY9We30xwjEHK-2" target="Qn_R-YLeY9We30xwjEHK-4">
          <mxGeometry relative="1" as="geometry" />
        </mxCell>
        <mxCell id="Qn_R-YLeY9We30xwjEHK-2" value="Nhập n1 n2 và phép tính op" style="shape=parallelogram;html=1;strokeWidth=2;perimeter=parallelogramPerimeter;whiteSpace=wrap;rounded=1;arcSize=12;size=0.23;" vertex="1" parent="1">
          <mxGeometry x="405" y="250" width="250" height="60" as="geometry" />
        </mxCell>
        <mxCell id="Qn_R-YLeY9We30xwjEHK-7" style="edgeStyle=orthogonalEdgeStyle;rounded=0;orthogonalLoop=1;jettySize=auto;html=1;entryX=1;entryY=0.5;entryDx=0;entryDy=0;" edge="1" parent="1" source="Qn_R-YLeY9We30xwjEHK-4" target="Qn_R-YLeY9We30xwjEHK-6">
          <mxGeometry relative="1" as="geometry" />
        </mxCell>
        <mxCell id="Qn_R-YLeY9We30xwjEHK-12" value="" style="edgeStyle=orthogonalEdgeStyle;rounded=0;orthogonalLoop=1;jettySize=auto;html=1;" edge="1" parent="1" source="Qn_R-YLeY9We30xwjEHK-4" target="Qn_R-YLeY9We30xwjEHK-11">
          <mxGeometry relative="1" as="geometry" />
        </mxCell>
        <mxCell id="Qn_R-YLeY9We30xwjEHK-4" value="&lt;br&gt;&lt;span style=&quot;color: rgb(0, 0, 0); font-family: Arial, sans-serif; font-size: 16px; font-style: normal; font-variant-ligatures: normal; font-variant-caps: normal; font-weight: 400; letter-spacing: normal; orphans: 2; text-align: start; text-indent: 0px; text-transform: none; widows: 2; word-spacing: 0px; -webkit-text-stroke-width: 0px; white-space: pre-wrap; background-color: rgb(255, 255, 255); text-decoration-thickness: initial; text-decoration-style: initial; text-decoration-color: initial; float: none; display: inline !important;&quot;&gt;op có phải + ?&lt;/span&gt;&lt;div&gt;&lt;br/&gt;&lt;/div&gt;" style="rhombus;whiteSpace=wrap;html=1;strokeWidth=2;rounded=1;arcSize=12;" vertex="1" parent="1">
          <mxGeometry x="460" y="380" width="140" height="110" as="geometry" />
        </mxCell>
        <mxCell id="Qn_R-YLeY9We30xwjEHK-9" style="edgeStyle=orthogonalEdgeStyle;rounded=0;orthogonalLoop=1;jettySize=auto;html=1;" edge="1" parent="1" source="Qn_R-YLeY9We30xwjEHK-6" target="Qn_R-YLeY9We30xwjEHK-8">
          <mxGeometry relative="1" as="geometry" />
        </mxCell>
        <mxCell id="Qn_R-YLeY9We30xwjEHK-6" value="S = n1 + n2" style="rounded=1;whiteSpace=wrap;html=1;absoluteArcSize=1;arcSize=14;strokeWidth=2;" vertex="1" parent="1">
          <mxGeometry x="220" y="385" width="100" height="100" as="geometry" />
        </mxCell>
        <mxCell id="Qn_R-YLeY9We30xwjEHK-8" value="In ra S" style="shape=parallelogram;html=1;strokeWidth=2;perimeter=parallelogramPerimeter;whiteSpace=wrap;rounded=1;arcSize=12;size=0.23;" vertex="1" parent="1">
          <mxGeometry x="220" y="583.75" width="100" height="60" as="geometry" />
        </mxCell>
        <mxCell id="Qn_R-YLeY9We30xwjEHK-10" value="True" style="text;html=1;align=center;verticalAlign=middle;whiteSpace=wrap;rounded=0;" vertex="1" parent="1">
          <mxGeometry x="360" y="400" width="60" height="30" as="geometry" />
        </mxCell>
        <mxCell id="Qn_R-YLeY9We30xwjEHK-14" style="edgeStyle=orthogonalEdgeStyle;rounded=0;orthogonalLoop=1;jettySize=auto;html=1;entryX=0.5;entryY=0;entryDx=0;entryDy=0;" edge="1" parent="1" source="Qn_R-YLeY9We30xwjEHK-11" target="Qn_R-YLeY9We30xwjEHK-13">
          <mxGeometry relative="1" as="geometry" />
        </mxCell>
        <mxCell id="Qn_R-YLeY9We30xwjEHK-20" value="" style="edgeStyle=orthogonalEdgeStyle;rounded=0;orthogonalLoop=1;jettySize=auto;html=1;" edge="1" parent="1" source="Qn_R-YLeY9We30xwjEHK-11" target="Qn_R-YLeY9We30xwjEHK-19">
          <mxGeometry relative="1" as="geometry" />
        </mxCell>
        <mxCell id="Qn_R-YLeY9We30xwjEHK-11" value="&lt;br&gt;&lt;span style=&quot;color: rgb(0, 0, 0); font-family: Arial, sans-serif; font-size: 16px; font-style: normal; font-variant-ligatures: normal; font-variant-caps: normal; font-weight: 400; letter-spacing: normal; orphans: 2; text-align: start; text-indent: 0px; text-transform: none; widows: 2; word-spacing: 0px; -webkit-text-stroke-width: 0px; white-space: pre-wrap; background-color: rgb(255, 255, 255); text-decoration-thickness: initial; text-decoration-style: initial; text-decoration-color: initial; float: none; display: inline !important;&quot;&gt;op có phải - ?&lt;/span&gt;&lt;div&gt;&lt;br/&gt;&lt;/div&gt;" style="rhombus;whiteSpace=wrap;html=1;strokeWidth=2;rounded=1;arcSize=12;" vertex="1" parent="1">
          <mxGeometry x="760" y="388.75" width="150" height="92.5" as="geometry" />
        </mxCell>
        <mxCell id="Qn_R-YLeY9We30xwjEHK-25" style="edgeStyle=orthogonalEdgeStyle;rounded=0;orthogonalLoop=1;jettySize=auto;html=1;entryX=0.75;entryY=0;entryDx=0;entryDy=0;" edge="1" parent="1" source="Qn_R-YLeY9We30xwjEHK-13" target="Qn_R-YLeY9We30xwjEHK-8">
          <mxGeometry relative="1" as="geometry" />
        </mxCell>
        <mxCell id="Qn_R-YLeY9We30xwjEHK-13" value="S = n1 - n2" style="rounded=1;whiteSpace=wrap;html=1;absoluteArcSize=1;arcSize=14;strokeWidth=2;" vertex="1" parent="1">
          <mxGeometry x="930" y="483.75" width="130" height="100" as="geometry" />
        </mxCell>
        <mxCell id="Qn_R-YLeY9We30xwjEHK-17" value="True" style="text;html=1;align=center;verticalAlign=middle;whiteSpace=wrap;rounded=0;" vertex="1" parent="1">
          <mxGeometry x="910" y="400" width="70" height="40" as="geometry" />
        </mxCell>
        <mxCell id="Qn_R-YLeY9We30xwjEHK-23" style="edgeStyle=orthogonalEdgeStyle;rounded=0;orthogonalLoop=1;jettySize=auto;html=1;entryX=1;entryY=0.5;entryDx=0;entryDy=0;" edge="1" parent="1" source="Qn_R-YLeY9We30xwjEHK-19" target="Qn_R-YLeY9We30xwjEHK-22">
          <mxGeometry relative="1" as="geometry" />
        </mxCell>
        <mxCell id="Qn_R-YLeY9We30xwjEHK-30" value="" style="edgeStyle=orthogonalEdgeStyle;rounded=0;orthogonalLoop=1;jettySize=auto;html=1;" edge="1" parent="1" source="Qn_R-YLeY9We30xwjEHK-19" target="Qn_R-YLeY9We30xwjEHK-29">
          <mxGeometry relative="1" as="geometry" />
        </mxCell>
        <mxCell id="Qn_R-YLeY9We30xwjEHK-19" value="&lt;br&gt;&lt;span style=&quot;color: rgb(0, 0, 0); font-family: Arial, sans-serif; font-size: 16px; font-style: normal; font-variant-ligatures: normal; font-variant-caps: normal; font-weight: 400; letter-spacing: normal; orphans: 2; text-align: start; text-indent: 0px; text-transform: none; widows: 2; word-spacing: 0px; -webkit-text-stroke-width: 0px; white-space: pre-wrap; background-color: rgb(255, 255, 255); text-decoration-thickness: initial; text-decoration-style: initial; text-decoration-color: initial; float: none; display: inline !important;&quot;&gt;op có phải * ?&lt;/span&gt;&lt;div&gt;&lt;br/&gt;&lt;/div&gt;" style="rhombus;whiteSpace=wrap;html=1;strokeWidth=2;rounded=1;arcSize=12;" vertex="1" parent="1">
          <mxGeometry x="760" y="567.5" width="150" height="92.5" as="geometry" />
        </mxCell>
        <mxCell id="Qn_R-YLeY9We30xwjEHK-24" style="edgeStyle=orthogonalEdgeStyle;rounded=0;orthogonalLoop=1;jettySize=auto;html=1;" edge="1" parent="1" source="Qn_R-YLeY9We30xwjEHK-22" target="Qn_R-YLeY9We30xwjEHK-8">
          <mxGeometry relative="1" as="geometry" />
        </mxCell>
        <mxCell id="Qn_R-YLeY9We30xwjEHK-22" value="S = n1 * n2" style="rounded=1;whiteSpace=wrap;html=1;absoluteArcSize=1;arcSize=14;strokeWidth=2;" vertex="1" parent="1">
          <mxGeometry x="590" y="563.75" width="100" height="100" as="geometry" />
        </mxCell>
        <mxCell id="Qn_R-YLeY9We30xwjEHK-26" value="Flase" style="text;html=1;align=center;verticalAlign=middle;whiteSpace=wrap;rounded=0;" vertex="1" parent="1">
          <mxGeometry x="640" y="400" width="60" height="30" as="geometry" />
        </mxCell>
        <mxCell id="Qn_R-YLeY9We30xwjEHK-27" value="Flase" style="text;html=1;align=center;verticalAlign=middle;whiteSpace=wrap;rounded=0;" vertex="1" parent="1">
          <mxGeometry x="780" y="500" width="60" height="30" as="geometry" />
        </mxCell>
        <mxCell id="Qn_R-YLeY9We30xwjEHK-28" value="True" style="text;html=1;align=center;verticalAlign=middle;whiteSpace=wrap;rounded=0;" vertex="1" parent="1">
          <mxGeometry x="700" y="570" width="70" height="40" as="geometry" />
        </mxCell>
        <mxCell id="Qn_R-YLeY9We30xwjEHK-39" value="" style="edgeStyle=orthogonalEdgeStyle;rounded=0;orthogonalLoop=1;jettySize=auto;html=1;" edge="1" parent="1" source="Qn_R-YLeY9We30xwjEHK-29" target="Qn_R-YLeY9We30xwjEHK-38">
          <mxGeometry relative="1" as="geometry" />
        </mxCell>
        <mxCell id="Qn_R-YLeY9We30xwjEHK-29" value="&lt;span style=&quot;font-family: Arial, sans-serif; font-size: 16px; text-align: start; white-space-collapse: preserve; background-color: rgb(255, 255, 255);&quot;&gt;op có phải / ?&lt;/span&gt;" style="rhombus;whiteSpace=wrap;html=1;strokeWidth=2;rounded=1;arcSize=12;" vertex="1" parent="1">
          <mxGeometry x="750" y="746.26" width="170" height="93.75" as="geometry" />
        </mxCell>
        <mxCell id="Qn_R-YLeY9We30xwjEHK-31" value="Flase" style="text;html=1;align=center;verticalAlign=middle;whiteSpace=wrap;rounded=0;" vertex="1" parent="1">
          <mxGeometry x="830" y="680" width="60" height="30" as="geometry" />
        </mxCell>
        <mxCell id="Qn_R-YLeY9We30xwjEHK-35" value="True" style="text;html=1;align=center;verticalAlign=middle;whiteSpace=wrap;rounded=0;" vertex="1" parent="1">
          <mxGeometry x="650" y="753.12" width="70" height="40" as="geometry" />
        </mxCell>
        <mxCell id="Qn_R-YLeY9We30xwjEHK-41" value="" style="edgeStyle=orthogonalEdgeStyle;rounded=0;orthogonalLoop=1;jettySize=auto;html=1;" edge="1" parent="1" source="Qn_R-YLeY9We30xwjEHK-38" target="Qn_R-YLeY9We30xwjEHK-40">
          <mxGeometry relative="1" as="geometry" />
        </mxCell>
        <mxCell id="Qn_R-YLeY9We30xwjEHK-45" value="" style="edgeStyle=orthogonalEdgeStyle;rounded=0;orthogonalLoop=1;jettySize=auto;html=1;" edge="1" parent="1" source="Qn_R-YLeY9We30xwjEHK-38" target="Qn_R-YLeY9We30xwjEHK-44">
          <mxGeometry relative="1" as="geometry" />
        </mxCell>
        <mxCell id="Qn_R-YLeY9We30xwjEHK-38" value="n2 = 0 ?" style="rhombus;whiteSpace=wrap;html=1;strokeWidth=2;rounded=1;arcSize=12;" vertex="1" parent="1">
          <mxGeometry x="545" y="753.125" width="80" height="80" as="geometry" />
        </mxCell>
        <mxCell id="Qn_R-YLeY9We30xwjEHK-51" style="edgeStyle=orthogonalEdgeStyle;rounded=0;orthogonalLoop=1;jettySize=auto;html=1;" edge="1" parent="1" source="Qn_R-YLeY9We30xwjEHK-40" target="Qn_R-YLeY9We30xwjEHK-49">
          <mxGeometry relative="1" as="geometry" />
        </mxCell>
        <mxCell id="Qn_R-YLeY9We30xwjEHK-40" value="Lỗi chia 0" style="shape=parallelogram;html=1;strokeWidth=2;perimeter=parallelogramPerimeter;whiteSpace=wrap;rounded=1;arcSize=12;size=0.23;" vertex="1" parent="1">
          <mxGeometry x="535" y="890" width="100" height="60" as="geometry" />
        </mxCell>
        <mxCell id="Qn_R-YLeY9We30xwjEHK-42" value="True" style="text;html=1;align=center;verticalAlign=middle;whiteSpace=wrap;rounded=0;" vertex="1" parent="1">
          <mxGeometry x="580" y="833.13" width="70" height="40" as="geometry" />
        </mxCell>
        <mxCell id="Qn_R-YLeY9We30xwjEHK-46" style="edgeStyle=orthogonalEdgeStyle;rounded=0;orthogonalLoop=1;jettySize=auto;html=1;entryX=0.5;entryY=1;entryDx=0;entryDy=0;" edge="1" parent="1" source="Qn_R-YLeY9We30xwjEHK-44" target="Qn_R-YLeY9We30xwjEHK-8">
          <mxGeometry relative="1" as="geometry" />
        </mxCell>
        <mxCell id="Qn_R-YLeY9We30xwjEHK-44" value="S = n1 / n2" style="rounded=1;whiteSpace=wrap;html=1;absoluteArcSize=1;arcSize=14;strokeWidth=2;" vertex="1" parent="1">
          <mxGeometry x="360" y="756.63" width="100" height="73" as="geometry" />
        </mxCell>
        <mxCell id="Qn_R-YLeY9We30xwjEHK-47" value="Không hợp lệ" style="shape=parallelogram;html=1;strokeWidth=2;perimeter=parallelogramPerimeter;whiteSpace=wrap;rounded=1;arcSize=12;size=0.23;" vertex="1" parent="1">
          <mxGeometry x="730" y="920" width="190" height="60" as="geometry" />
        </mxCell>
        <mxCell id="Qn_R-YLeY9We30xwjEHK-48" style="edgeStyle=orthogonalEdgeStyle;rounded=0;orthogonalLoop=1;jettySize=auto;html=1;entryX=0.572;entryY=-0.02;entryDx=0;entryDy=0;entryPerimeter=0;" edge="1" parent="1" source="Qn_R-YLeY9We30xwjEHK-29" target="Qn_R-YLeY9We30xwjEHK-47">
          <mxGeometry relative="1" as="geometry" />
        </mxCell>
        <mxCell id="Qn_R-YLeY9We30xwjEHK-49" value="End" style="strokeWidth=2;html=1;shape=mxgraph.flowchart.start_1;whiteSpace=wrap;" vertex="1" parent="1">
          <mxGeometry x="170" y="950" width="100" height="60" as="geometry" />
        </mxCell>
        <mxCell id="Qn_R-YLeY9We30xwjEHK-50" style="edgeStyle=orthogonalEdgeStyle;rounded=0;orthogonalLoop=1;jettySize=auto;html=1;entryX=0.39;entryY=-0.053;entryDx=0;entryDy=0;entryPerimeter=0;" edge="1" parent="1" source="Qn_R-YLeY9We30xwjEHK-8" target="Qn_R-YLeY9We30xwjEHK-49">
          <mxGeometry relative="1" as="geometry">
            <Array as="points">
              <mxPoint x="210" y="614" />
              <mxPoint x="210" y="797" />
              <mxPoint x="209" y="797" />
            </Array>
          </mxGeometry>
        </mxCell>
        <mxCell id="Qn_R-YLeY9We30xwjEHK-52" style="edgeStyle=orthogonalEdgeStyle;rounded=0;orthogonalLoop=1;jettySize=auto;html=1;entryX=0.5;entryY=1;entryDx=0;entryDy=0;entryPerimeter=0;" edge="1" parent="1" source="Qn_R-YLeY9We30xwjEHK-47" target="Qn_R-YLeY9We30xwjEHK-49">
          <mxGeometry relative="1" as="geometry">
            <Array as="points">
              <mxPoint x="825" y="1030" />
              <mxPoint x="220" y="1030" />
            </Array>
          </mxGeometry>
        </mxCell>
        <mxCell id="Qn_R-YLeY9We30xwjEHK-53" value="Flase" style="text;html=1;align=center;verticalAlign=middle;whiteSpace=wrap;rounded=0;" vertex="1" parent="1">
          <mxGeometry x="830" y="850" width="60" height="30" as="geometry" />
        </mxCell>
      </root>
    </mxGraphModel>
  </diagram>
</mxfile>
